<svg id="レイヤー_1" data-name="レイヤー 1" xmlns="http://www.w3.org/2000/svg" viewBox="0 0 120.08 116.97"><defs><style>.cls-1{fill:none;stroke:#007f41;stroke-width:0.75px;}.cls-2{fill:#00a33b;}.cls-3{fill:#007f41;}.cls-4{fill:#fff;}</style></defs><title>IkkyusanLogo</title><path class="cls-1" d="M116.45,62.39a56,56,0,1,1-56-56A56,56,0,0,1,116.45,62.39Z" transform="translate(-4.05 -6.01)"/><path class="cls-1" d="M49.39,9.84A53.72,53.72,0,1,0,72.26,10" transform="translate(-4.05 -6.01)"/><path class="cls-2" d="M34.15,95.09h.79V103h-.79Z" transform="translate(-4.05 -6.01)"/><path class="cls-2" d="M37.38,94.89h.74V99.5l2.72-2.36h1.09l-3.2,2.78,3.39,3H41.05l-2.93-2.63V103h-.74Z" transform="translate(-4.05 -6.01)"/><path class="cls-2" d="M43.65,94.89h.75V99.5l2.72-2.36H48.2L45,99.92l3.39,3H47.32l-2.92-2.63V103h-.75Z" transform="translate(-4.05 -6.01)"/><path class="cls-2" d="M49.3,97.14h.78l2,4.5,2-4.5h.78l-3.48,8h-.78l1.13-2.58Z" transform="translate(-4.05 -6.01)"/><path class="cls-2" d="M56.48,97.14h.74v2.72a5.76,5.76,0,0,0,.11,1.36,1.57,1.57,0,0,0,.62.85,1.89,1.89,0,0,0,1.09.31,1.86,1.86,0,0,0,1.08-.3,1.56,1.56,0,0,0,.61-.8,5.84,5.84,0,0,0,.11-1.42V97.14h.75V100a4.65,4.65,0,0,1-.28,1.81,2.12,2.12,0,0,1-.85,1,2.69,2.69,0,0,1-1.42.35,2.73,2.73,0,0,1-1.43-.35,2.14,2.14,0,0,1-.85-1,4.65,4.65,0,0,1-.28-1.86Z" transform="translate(-4.05 -6.01)"/><path class="cls-2" d="M63.52,99.68h3v.65h-3Z" transform="translate(-4.05 -6.01)"/><path class="cls-2" d="M71.36,97.78l-.48.5a1.71,1.71,0,0,0-1.18-.59.93.93,0,0,0-.64.24.76.76,0,0,0-.26.56A.8.8,0,0,0,69,99a2.93,2.93,0,0,0,.9.61,3.4,3.4,0,0,1,1.15.84,1.48,1.48,0,0,1,.29.91,1.67,1.67,0,0,1-.5,1.22,1.74,1.74,0,0,1-1.26.5,2.33,2.33,0,0,1-1-.22,2.16,2.16,0,0,1-.76-.61l.47-.54a1.66,1.66,0,0,0,1.22.65,1.11,1.11,0,0,0,.77-.28.93.93,0,0,0,.32-.69.87.87,0,0,0-.21-.57,3.37,3.37,0,0,0-1-.62,3,3,0,0,1-1.07-.8,1.45,1.45,0,0,1-.28-.89,1.47,1.47,0,0,1,.45-1.1A1.58,1.58,0,0,1,69.74,97,2.37,2.37,0,0,1,71.36,97.78Z" transform="translate(-4.05 -6.01)"/><path class="cls-2" d="M77.88,98.41a2.28,2.28,0,0,1,.67,1.68,2.36,2.36,0,0,1-.3,1.19,2.21,2.21,0,0,1-.85.84,2.36,2.36,0,0,1-1.16.3,2.17,2.17,0,0,1-1.14-.31,2.22,2.22,0,0,1-.85-.87,2.36,2.36,0,0,1,0-2.34,2.24,2.24,0,0,1,.84-.86,2.31,2.31,0,0,1,1.16-.31A2.2,2.2,0,0,1,77.88,98.41Zm.62-1.27v1.07a2.92,2.92,0,0,0-1-.91,2.8,2.8,0,0,0-1.3-.3,2.9,2.9,0,0,0-2.12.89,3,3,0,0,0-.89,2.15,3,3,0,0,0,.88,2.17,2.84,2.84,0,0,0,2.11.9,2.9,2.9,0,0,0,1.28-.29A3,3,0,0,0,78.5,102v1h.75V97.14Z" transform="translate(-4.05 -6.01)"/><path class="cls-2" d="M81.71,97.14h.75v1a3,3,0,0,1,1-.89,2.38,2.38,0,0,1,1.18-.3,2,2,0,0,1,1.16.34,2,2,0,0,1,.75.89,4.7,4.7,0,0,1,.24,1.75v3h-.74v-2.78A6.29,6.29,0,0,0,86,98.85a1.5,1.5,0,0,0-.5-.87,1.55,1.55,0,0,0-1-.29,1.86,1.86,0,0,0-1.22.45,2.12,2.12,0,0,0-.7,1.11,7.79,7.79,0,0,0-.11,1.58V103h-.75Z" transform="translate(-4.05 -6.01)"/><path class="cls-2" d="M60.44,91.91S57,88.69,57,84.39a40,40,0,0,0-.91-22s.53-10.56.18-17.4c0,0-4.67-.32-5.91,11.88l-1.77,4.27L39.54,32.7s-4.77-11.49-4.25,1.14L41.1,58.37s.27,3.18-1,.38l-8.48-24S26.24,23.83,27,36.83l7.75,26s-.25,4.31-1.91,1.29L23.26,41.52S19.44,36.28,19.58,44L28.49,67.9s.39,3.36-1.49,1.17L18.56,53.75S12.9,46,15.16,56.23l8,16.12s6.41,15.42,14.24,20.13H60.44Z" transform="translate(-4.05 -6.01)"/><path class="cls-2" d="M97.76,72.35l7.95-16.12c2.26-10.26-3.4-2.48-3.4-2.48L93.87,69.07C92,71.26,92.38,67.9,92.38,67.9L101.29,44c.13-7.68-3.68-2.44-3.68-2.44L88,64.16c-1.67,3-1.92-1.29-1.92-1.29l7.75-26c.76-13-4.62-2.13-4.62-2.13l-8.48,24c-1.27,2.8-1-.38-1-.38l5.81-24.53c.52-12.63-4.25-1.14-4.25-1.14l-9,28.48-1.77-4.27C69.27,44.71,64.6,45,64.6,45c-.35,6.84.19,17.4.19,17.4a40,40,0,0,0-.92,22c0,4.3-3.43,7.52-3.43,7.52v.57H83.52C91.35,87.77,97.76,72.35,97.76,72.35Z" transform="translate(-4.05 -6.01)"/><path class="cls-2" d="M51.32,11.39a11.41,11.41,0,0,0,1.76.2,22.31,22.31,0,0,0,4.28-1,32.83,32.83,0,0,1,9.26-1.09,5.84,5.84,0,0,1,2,.5q1.41.54,1.41,1.23a1.41,1.41,0,0,1-1.34.7,20.71,20.71,0,0,0-2.89-.2,14.86,14.86,0,0,0-4.55,1.53c-.14,0-.2-.05-.2-.17q3.28-1.44,3.39-1.86c0-.11-.09-.19-.25-.22-.48,0-1-.05-1.51-.05a28.57,28.57,0,0,0-6.16,1.31,15.14,15.14,0,0,1-3,1,3,3,0,0,1-1.61-.77c-.59-.46-.89-.75-.89-.86S51.16,11.43,51.32,11.39Z" transform="translate(-4.05 -6.01)"/><path class="cls-2" d="M51.74,26.18a41.29,41.29,0,0,0,2.65-6.07,6.07,6.07,0,0,0,.4-1.6,1.1,1.1,0,0,0-.42-.79c0-.18.09-.28.22-.28a2.42,2.42,0,0,1,.72.15l.84.32a1.27,1.27,0,0,1,.94,1.21,4.59,4.59,0,0,1-.49,1.57L55,24q-2.09,4.32-5.25,5.36A24.72,24.72,0,0,0,51.74,26.18ZM54,26.5h.12a5.08,5.08,0,0,1,.55,1.28,8.68,8.68,0,0,1,.17,1.51l1-2.25H56l0,.12a9.68,9.68,0,0,0-.92,3.72l-.12,3a4.63,4.63,0,0,1-.2,1.38.5.5,0,0,1-.52.35c-.63,0-1.11-.77-1.44-2.3v0a6.07,6.07,0,0,1-.05-.66,22.25,22.25,0,0,1,.75-4.48Zm4.23,1.93a34.6,34.6,0,0,0,3-4.55,3.86,3.86,0,0,1-1,.24l-1.56,0-.29,0a.48.48,0,0,0-.18,0l-.2,0,0-.09A14.25,14.25,0,0,1,60,23c.48-.21,1.23-.49,2.25-.82a2.94,2.94,0,0,0,0-.44v-.3c0-.31,0-.76,0-1.34s0-1.07-.07-1.51a11.94,11.94,0,0,0-.57-2.92l.07-.12a3.46,3.46,0,0,1,2,.94,2.23,2.23,0,0,1,.94,1.61,8.17,8.17,0,0,1-.17,1.61c0,.13,0,.35-.07.67s-.07.4-.1.59a6.57,6.57,0,0,1-.08.69A11.08,11.08,0,0,1,66,21.42a2.53,2.53,0,0,1,1.24.33c.39.21.59.43.59.66s-.17.33-.52.47a2.5,2.5,0,0,1-1.11.18h-.52a10.56,10.56,0,0,0-1.56.15L64,27.58q2.35.71,3.24,1c.53.19,1.12.41,1.78.69,1.8.76,2.7,1.41,2.7,2S71.46,32,71,32a3.28,3.28,0,0,1-.4-.08l-1.38-.27-.25,0-.22,0-.7-.15a4.74,4.74,0,0,0-.71-.06h-.52l-.87.06a.48.48,0,0,1,.27-.2,5.12,5.12,0,0,1,.84-.2,3.53,3.53,0,0,0,.55-.15c-.89-.47-1.54-.82-2-1s-1-.49-1.56-.72l0,.79.37,3.88c0,.3.05.73.05,1.29,0,1.09-.35,1.63-1,1.63-.34,0-.95-.44-1.83-1.31A19,19,0,0,0,60,34.12l-.62-.5-.44-.29-.52-.4-.69-.47,0-.17c1.11.51,1.93.86,2.48,1.06a4,4,0,0,0,1.26.3,3.7,3.7,0,0,0,.57-.08l.1-.81.1-4.33a6.48,6.48,0,0,0-1.51-.5c-1.82,2.1-3.4,3.14-4.75,3.14a4,4,0,0,1-.67-.09A12.25,12.25,0,0,0,58.2,28.43Zm4-2.57L61.49,27l.77.09Z" transform="translate(-4.05 -6.01)"/><path class="cls-2" d="M66.58,35.31A13.24,13.24,0,0,0,68.31,35a3.2,3.2,0,0,1-.15-.81,1,1,0,0,1,.26-.72.56.56,0,0,1,0,.08h0l.41,1h0a.08.08,0,0,0,0,0l.06.12.2-.09.3-.14.16-.09-.21-.37,0-.09a2.89,2.89,0,0,0,.62.27,2.82,2.82,0,0,1,.5.18.22.22,0,0,1,.13.2c0,.19-.22.37-.67.53-.11,0-.31.12-.61.24.09.15.18.28.27.41a2.73,2.73,0,0,0,.21.3,1.8,1.8,0,0,1,.42.94c0,.26-.09.39-.25.39h-.1l-.65-.17a2.23,2.23,0,0,0-.56-.06c-.87,0-1.3.29-1.3.87a.74.74,0,0,0,.33.56,1.4,1.4,0,0,0,.74.35h.07l.18,0h.09a.54.54,0,0,1,.26.1,1.89,1.89,0,0,1,.38.27q.18.15.18.21c0,.07-.08.14-.25.21a1.34,1.34,0,0,1-.52.1,2.43,2.43,0,0,1-1.49-.47,1.26,1.26,0,0,1-.65-1c0-.27.2-.57.62-.89a2.83,2.83,0,0,1,.8-.45,4.55,4.55,0,0,1,1.11-.17,4.41,4.41,0,0,0-.41-.81l-.28-.4a8.84,8.84,0,0,1-1.28.18,2.42,2.42,0,0,1-.91-.18c-.3-.12-.45-.25-.46-.38v0A4.21,4.21,0,0,0,66.58,35.31Z" transform="translate(-4.05 -6.01)"/><path class="cls-2" d="M72.49,37.92a1.84,1.84,0,0,1-.32,1l-.76,1.21-.48.94.54-.34a.6.6,0,0,1,.24-.06c.22,0,.34.24.37.71a1.57,1.57,0,0,0,.38,1,1.06,1.06,0,0,0,.8.39,1.76,1.76,0,0,0,1.35-.82,3.67,3.67,0,0,0,.35-.51c.07-.11.15-.25.25-.43s.2-.35.36-.64a5.47,5.47,0,0,1-.86,2.3,1.78,1.78,0,0,1-1.39.94,1.75,1.75,0,0,1-1.16-.46A2.3,2.3,0,0,1,71.43,42a3.89,3.89,0,0,1-.11-.41l-.09-.18a7.46,7.46,0,0,0-.6.84L70,43.3c-.12.19-.22.28-.31.28s-.15-.07-.23-.2a.77.77,0,0,1-.11-.39,1.7,1.7,0,0,1,.2-.77l.93-1.73,1.15-2.3L72.16,37A1.13,1.13,0,0,1,72.49,37.92Z" transform="translate(-4.05 -6.01)"/><rect class="cls-3" x="99.91" y="60.4" width="10.87" height="56.57"/><rect class="cls-2" x="110.78" y="60.4" width="9.3" height="56.57"/><path class="cls-4" d="M112.43,75.14c0-.23-.23-.44-.59-.63a3,3,0,0,0-.88-.25V72.53a1.5,1.5,0,0,0,.47-1c0-.51-.12-.78-.35-.78s-.43.21-.5.63c0,.07,0,.38-.08.94a.57.57,0,0,1-.37.16c-.25,0-.38-.18-.38-.54a.3.3,0,0,0-.18-.09c-.25,0-.37.22-.37.66s.22.6.68.6a1.07,1.07,0,0,0,.6-.17,6.7,6.7,0,0,1-.11,1.37,5.6,5.6,0,0,0-1.26.26c-.57.21-.85.48-.85.81,0,.07.09.13.28.17a4.15,4.15,0,0,1,.59.37,1.09,1.09,0,0,0,.61.28c.45,0,.83-.42,1.11-1.28l.36,0a.32.32,0,0,1,.24.25,6.69,6.69,0,0,1-.35.83,2.08,2.08,0,0,0,.77-.28A1,1,0,0,0,112.43,75.14Zm-.28-5.35a.64.64,0,0,0-.23-.42.76.76,0,0,0-.42-.14,3.21,3.21,0,0,1-.47-.1,4.87,4.87,0,0,0-1.28-.34.88.88,0,0,0-.41.09,1.08,1.08,0,0,0,.63.84A2.11,2.11,0,0,0,111,70c-.29.23-.43.42-.43.57a2.67,2.67,0,0,1,1-.41C112,70.14,112.15,70,112.15,69.79Zm-4.82,4.35a.71.71,0,0,0-.61.43l-.31.76a3.62,3.62,0,0,1-.11-1.12,14.85,14.85,0,0,1,.41-3.46,6.09,6.09,0,0,0,.21-1,1.79,1.79,0,0,0-.12-.61c-.09-.27-.22-.41-.39-.41a.2.2,0,0,0-.21.17,9.86,9.86,0,0,1,.13,1.29,6.41,6.41,0,0,1-.2,1,16.55,16.55,0,0,0-.57,3.82c0,1.09.28,1.63.87,1.63.16,0,.28-.16.35-.49A5.26,5.26,0,0,1,107.33,74.14Zm2.66.8a1.15,1.15,0,0,0-.17.49,1.68,1.68,0,0,1-.68-.1C109.14,75.19,109.42,75.06,110,74.94Z" transform="translate(-4.05 -6.01)"/><path class="cls-4" d="M107,82.19c-.38.71-.6,1.09-.65,1.16,0-.37,0-.65,0-.84a2.18,2.18,0,0,0,.69-.36ZM113.34,86a1.6,1.6,0,0,0-.65-1.32,3.16,3.16,0,0,0,.36-1.39,4.14,4.14,0,0,0-.37-1.74,1.46,1.46,0,0,0-1.33-.94,1.34,1.34,0,0,0-.75.21,2.28,2.28,0,0,1,.47-.07,1.12,1.12,0,0,1,1,.56,2.12,2.12,0,0,1,.33,1.17,4.44,4.44,0,0,1-.46,1.83,3.93,3.93,0,0,0-.73-.09,4.2,4.2,0,0,0-1.11.15c-.49.13-.72.33-.72.59a1.66,1.66,0,0,0,.36.82c.23.4.44.6.6.62a7.4,7.4,0,0,1,1-.43,2.31,2.31,0,0,0,1-.72,1.4,1.4,0,0,1,.48.59.63.63,0,0,1-.36.37l-.5.25a3.36,3.36,0,0,0,.79-.09C113.13,86.24,113.34,86.13,113.34,86ZM110.06,81c-1.12.86-2,1.49-2.52,1.91a5.82,5.82,0,0,1,.11-.83c.12-.18.24-.39.37-.6a2.73,2.73,0,0,0,.33-.6.53.53,0,0,0-.51-.29q.16-1.17.36-2.13a.42.42,0,0,0-.33.28,8.32,8.32,0,0,0-.59,2,3.89,3.89,0,0,0-1,.62c-.46.37-.68.67-.68.93,0,.11.07.21.24.25.09.43.18.85.28,1.27a4.56,4.56,0,0,1-.45.6c-.32.31-.48.56-.48.72a.48.48,0,0,0,.2.42.69.69,0,0,0,.46.18c.08,0,.25-.14.52-.42.12.86.19,1.33.2,1.4a.61.61,0,0,0,.16.42,1.28,1.28,0,0,0,.59.36c0-1.13,0-2.28.15-3.44Zm1.46,3.87a2.29,2.29,0,0,1-.48.37,1.25,1.25,0,0,1-.57.21c-.18,0-.28-.1-.28-.34s.27-.29.83-.29C111.14,84.83,111.3,84.86,111.52,84.88Zm-4.79,0c0,.2,0,.5,0,.91,0-.16-.08-.41-.15-.73Z" transform="translate(-4.05 -6.01)"/><path class="cls-4" d="M112.07,94.2a5.11,5.11,0,0,1-2.43,1q3-1.55,3-3.09a1,1,0,0,0-.31-.76,1.21,1.21,0,0,0-.81-.29,3.83,3.83,0,0,0-1.31.33l-1.9.8a6.6,6.6,0,0,1-2,.53,1.31,1.31,0,0,1-1.33-1,14.45,14.45,0,0,0,3.38-.7,13.45,13.45,0,0,1,3.25-.61,1.9,1.9,0,0,1,1.31.46,1.61,1.61,0,0,1,.51,1.25A2.65,2.65,0,0,1,112.07,94.2Z" transform="translate(-4.05 -6.01)"/><path class="cls-4" d="M110.15,107a2.54,2.54,0,0,1-1.07-.7,8.49,8.49,0,0,1-.89-1c-.31-.32-.52-.51-.66-.53a1.44,1.44,0,0,0-.2.76,1.6,1.6,0,0,0,.53,1.22,1.78,1.78,0,0,0,1.26.5A2.16,2.16,0,0,0,110.15,107ZM114,98.84c0-.19-.15-.37-.43-.58a1.42,1.42,0,0,0-.74-.3.94.94,0,0,0-.56.24,3.1,3.1,0,0,1,1.16.8c.08.15.16.22.25.22S114,99.1,114,98.84Zm-1.66.7a.74.74,0,0,0-.23-.46.65.65,0,0,1-.22-.39,1.11,1.11,0,0,1,.08-.33,1,1,0,0,1-.67.39,1.31,1.31,0,0,1-.48-.18,1.43,1.43,0,0,0,.29.9,1,1,0,0,0,.8.45.44.44,0,0,0,.29-.11A.35.35,0,0,0,112.37,99.54Zm-.94,4.52a5.59,5.59,0,0,1-.78-1.23c.34-.19.51-.4.51-.62s-.21-.36-.62-.36l-.3,0a6.07,6.07,0,0,1-.2-1c.39-.23.58-.47.58-.68a.24.24,0,0,0-.11-.18,2.31,2.31,0,0,1-.54.17,1.31,1.31,0,0,1,0-.17,3.53,3.53,0,0,0-.23-1.26,1.16,1.16,0,0,0-1.08-.57,7.8,7.8,0,0,0,.35,2.21,6.24,6.24,0,0,1-1.21.12,3.06,3.06,0,0,1-.82-.14c.24.57.83.85,1.76.85a2.48,2.48,0,0,0,.52-.07,5.21,5.21,0,0,0,.32.85c-.86.33-1.28.57-1.28.76s.14.2.43.29a1.41,1.41,0,0,0,.53.13,3,3,0,0,0,.81-.16,2.56,2.56,0,0,0,.42.67h-.59c.61.5,1,.75,1.18.75S111.39,104.33,111.43,104.06Z" transform="translate(-4.05 -6.01)"/><path class="cls-4" d="M118,70.24v.41h-.68v-.41Zm-1.25-.54h1.26V70h-1v1h.83a4.38,4.38,0,0,1-.46.42,6.14,6.14,0,0,1-.7.37A1.39,1.39,0,0,1,117,72a3.63,3.63,0,0,0,.83-.55,1.74,1.74,0,0,0,.25-.23v.88h.35v-.69l.18.09c.13.06.31.14.55.23.05-.08.1-.17.16-.25a4.73,4.73,0,0,1-.47-.2c-.11-.05-.25-.13-.42-.23v-.12h.94V70h-.94V69.7h1.15v-.29H118.4V69h-.35v.42h-1.26Zm2.22.54v.41h-.61v-.41Zm.93-.43a2.52,2.52,0,0,1-.56.62.82.82,0,0,1,.27.33,3.39,3.39,0,0,0,.31-.34,2,2,0,0,0,.52.77l-.17.11a5.41,5.41,0,0,1-1,.42.9.9,0,0,1,.19.38,6.37,6.37,0,0,0,1-.51l.22-.16a5.31,5.31,0,0,0,1.1.57,1.44,1.44,0,0,1,.25-.29,5.38,5.38,0,0,1-1.08-.54,3.25,3.25,0,0,0,.23-.29,2.46,2.46,0,0,0,.33-.84H122v-.29H120.4c.1-.2.2-.43.31-.7l-.37-.14A4.87,4.87,0,0,1,119.94,69.81Zm.29.23h1a1.84,1.84,0,0,1-.33.73.8.8,0,0,1-.15.17l-.05,0a2.07,2.07,0,0,1-.5-.83Zm-3.15,2.51h2.17v1.12h-1v-.8h-.38v.8h-1.11V74H122v-.31h-2.4v-.38h1.46V73h-1.46v-.44h2v-.32h-4.51Z" transform="translate(-4.05 -6.01)"/><path class="cls-4" d="M118.17,77.29h2.44v.35h-2.44Zm-.35-2.75V76.2h-.94v1.24h.42v-.88h4.21v.84h.42V76.2h-1V74.54Zm.39.36h2.33v.42h-1.42v.88h-.91Zm1.31.76h1v.54h-1Zm-1.75,3.93h.4v-.91h2.44v.45s-.09.05-.25.05l-.41,0a1.05,1.05,0,0,1,.12.42,2.14,2.14,0,0,0,.82-.12.36.36,0,0,0,.12-.26V76.92h-3.24Zm.4-1.61h2.44v.37h-2.44Z" transform="translate(-4.05 -6.01)"/><path class="cls-4" d="M119.13,80.91l-.21.2v.55l.21.2h.56l.21-.2v-.55l-.21-.2Z" transform="translate(-4.05 -6.01)"/><path class="cls-4" d="M121.55,83.29l.28.39a4,4,0,0,0-.37.36,23.05,23.05,0,0,1-1.89,1.8,5.64,5.64,0,0,1,.89,1l-.38.3a11.2,11.2,0,0,0-2-2l.28-.34,1,.82a20,20,0,0,0,1.87-1.82H117v-.41h4.42Z" transform="translate(-4.05 -6.01)"/><path class="cls-4" d="M119.41,87.57a6.91,6.91,0,0,1,.44,1l.35-.13a5.68,5.68,0,0,0-.46-1Zm-1.24.2a5.42,5.42,0,0,1,.56,1l.35-.16a11.38,11.38,0,0,0-.55-1Zm2.61,1.7a3.51,3.51,0,0,1-2,1.32l.19.37a4.23,4.23,0,0,0,2-1.35,5.2,5.2,0,0,0,.92-2.09l-.4-.13A5.38,5.38,0,0,1,120.78,89.47Z" transform="translate(-4.05 -6.01)"/><path class="cls-4" d="M120.66,91.43v1.29H122v.41h-1.31a3.35,3.35,0,0,1-.46,2.07,4.31,4.31,0,0,1-1.93,1.07,1.37,1.37,0,0,0-.23-.45,3.11,3.11,0,0,0,1.67-.73,2.76,2.76,0,0,0,.51-2h-1.68v1.32h-.44V93.13h-1.23v-.41h1.23V91.59h.44v1.13h1.68V91.43Z" transform="translate(-4.05 -6.01)"/><path class="cls-4" d="M119.2,96.68h.44v4.62h-.44Z" transform="translate(-4.05 -6.01)"/><path class="cls-4" d="M117.22,103.75a9.3,9.3,0,0,1,1.09.48l.22-.36a5.13,5.13,0,0,0-1.15-.5Zm.65-1.54a7.4,7.4,0,0,1,1.1.62l.25-.37a7.46,7.46,0,0,0-1.16-.61ZM117.5,106l.23.48a9.24,9.24,0,0,0,4.21-2.89l-.3-.34A8,8,0,0,1,117.5,106Zm3-3.63a3.05,3.05,0,0,1,.57.52l.24-.23a4.49,4.49,0,0,0-.6-.52Zm.48-.52a4.3,4.3,0,0,1,.58.54l.26-.25c-.17-.16-.37-.34-.6-.52Z" transform="translate(-4.05 -6.01)"/><path class="cls-4" d="M119.13,107.66l-.21.2v.55l.21.2h.56l.21-.2v-.55l-.21-.2Z" transform="translate(-4.05 -6.01)"/><path class="cls-4" d="M119,111.18v.41h-.61v-.41Zm-2.22-.54h1.26v.26h-1v1h.83a4.24,4.24,0,0,1-.46.41,4.87,4.87,0,0,1-.7.37,1.39,1.39,0,0,1,.26.28,4,4,0,0,0,.83-.54,2.77,2.77,0,0,0,.25-.24V113h.35v-.69l.18.09a4.85,4.85,0,0,0,.55.23c.05-.08.1-.17.16-.25a3.15,3.15,0,0,1-.47-.2c-.11,0-.25-.13-.42-.23v-.11h.94v-1h-.94v-.26h1.15v-.29H118.4v-.42h-.35v.42h-1.26Zm1.25.54v.41h-.68v-.41Zm1.9-.43a2.52,2.52,0,0,1-.56.62.82.82,0,0,1,.27.33,2.56,2.56,0,0,0,.31-.34,1.92,1.92,0,0,0,.52.77l-.17.11a4.23,4.23,0,0,1-1,.42,1,1,0,0,1,.19.38,7.3,7.3,0,0,0,1-.5l.22-.17a5.82,5.82,0,0,0,1.1.58,1.23,1.23,0,0,1,.25-.3,5.38,5.38,0,0,1-1.08-.54,3.25,3.25,0,0,0,.23-.29,2.38,2.38,0,0,0,.33-.84H122v-.29H120.4c.1-.2.2-.43.31-.7l-.37-.13A4.74,4.74,0,0,1,119.94,110.75Zm.29.23h1a1.84,1.84,0,0,1-.33.73,1.19,1.19,0,0,1-.15.18s0,0-.05,0a2.07,2.07,0,0,1-.5-.83Zm-3.15,2.51h2.17v1.12h-1v-.79h-.38v.79h-1.11v.31H122v-.31h-2.4v-.38h1.46v-.3h-1.46v-.44h2v-.32h-4.51Z" transform="translate(-4.05 -6.01)"/><path class="cls-4" d="M118.06,115.62l.38.21a12.72,12.72,0,0,1-.54,1.22v3.84h-.37v-3.18a10.68,10.68,0,0,1-.62.92,1.46,1.46,0,0,0-.29-.34,6.18,6.18,0,0,0,.76-1.11A8,8,0,0,0,118.06,115.62Zm.23,1.3h1.6v-1.23h.39v1.23h1.62v.36h-1.48a10,10,0,0,0,.81,1.36,4.91,4.91,0,0,0,.88.92,1.09,1.09,0,0,0-.25.38,6.11,6.11,0,0,1-1-1.19c-.21-.32-.39-.63-.56-.93v1.62h1v.36h-1v1.08h-.39V119.8h-1.11v-.36h1.11v-1.57a9.71,9.71,0,0,1-1.64,2,1.17,1.17,0,0,0-.28-.36,6.51,6.51,0,0,0,1.8-2.28h-1.48Z" transform="translate(-4.05 -6.01)"/></svg>